<?xml version="1.0" encoding="UTF-8"?>
<svg width="1743px" height="315px" viewBox="0 0 1743 315" version="1.1" xmlns="http://www.w3.org/2000/svg" xmlns:xlink="http://www.w3.org/1999/xlink">
    <title>Group Copy</title>
    <defs>
        <rect id="path-1" x="28" y="0" width="398" height="315" rx="60"></rect>
    </defs>
    <g id="Page-1" stroke="none" stroke-width="1" fill="none" fill-rule="evenodd">
        <g id="Frame-2-Copy" transform="translate(-1081, -831)">
            <g id="Group-Copy" transform="translate(1081, 831)">
                <g id="Group" transform="translate(-28, 0)">
                    <g transform="translate(39, 0)">
                        <mask id="mask-2" fill="white">
                            <use xlink:href="#path-1"></use>
                        </mask>
                        <use id="Rectangle" fill="#FFFFFF" xlink:href="#path-1"></use>
                        <path d="M99,315.070134 L334,315.070134 L232.36211,182.724626 C225.634351,173.964225 213.078716,172.316443 204.318314,179.044202 C202.936427,180.105456 201.699144,181.342739 200.63789,182.724626 L99,315.070134 L99,315.070134 Z" id="Path" fill="#7DC3FF" mask="url(#mask-2)"></path>
                        <path d="M257,315.070134 L410,315.070134 L349.3257,236.550452 C342.571837,227.810159 330.011343,226.199839 321.27105,232.953702 C319.923939,233.994651 318.715249,235.203341 317.6743,236.550452 L257,315.070134 L257,315.070134 Z" id="Path-Copy" fill="#7DC3FF" mask="url(#mask-2)"></path>
                        <circle id="Oval" fill="#7DC3FF" mask="url(#mask-2)" cx="153.5" cy="93.5" r="38.5"></circle>
                    </g>
                    <rect id="Rectangle-2" fill="#7DC3FF" x="28" y="54" width="78" height="31" rx="15.5"></rect>
                    <rect id="Rectangle-2-Copy" fill="#7DC3FF" x="28" y="117" width="78" height="31" rx="15.5"></rect>
                    <rect id="Rectangle-2-Copy-2" fill="#7DC3FF" x="28" y="180" width="78" height="31" rx="15.5"></rect>
                    <rect id="Rectangle-2-Copy-3" fill="#7DC3FF" x="28" y="243" width="78" height="31" rx="15.5"></rect>
                </g>
                <g id="PicNote-AI" transform="translate(526, -2)" fill-rule="nonzero">
                    <path d="M37.51875,245.2275 C30.41375,245.2275 24.95375,243.265625 21.13875,239.341875 C17.32375,235.418125 15.41625,229.9025 15.41625,222.795 L15.41625,96.1425 C15.41625,88.8775 17.36375,83.3375 21.25875,79.5225 C25.15375,75.7075 30.65375,73.8 37.75875,73.8 L96.825,73.8 C115.9975,73.8 130.8025,78.72125 141.24,88.56375 C151.6775,98.40625 156.89625,111.95375 156.89625,129.20625 C156.89625,146.45875 151.6775,160.020625 141.24,169.891875 C130.8025,179.763125 115.9975,184.69875 96.825,184.69875 L59.4675,184.69875 L59.4675,222.795 C59.4675,229.9025 57.625625,235.418125 53.941875,239.341875 C50.258125,243.265625 44.78375,245.2275 37.51875,245.2275 Z M59.4675,150.8025 L88.9575,150.8025 C97.3875,150.8025 103.815,149.00125 108.24,145.39875 C112.665,141.79625 114.8775,136.39875 114.8775,129.20625 C114.8775,121.91125 112.665,116.5025 108.24,112.98 C103.815,109.4575 97.3875,107.69625 88.9575,107.69625 L59.4675,107.69625 L59.4675,150.8025 Z" id="Shape" fill="#FFFFFF"></path>
                    <path d="M195.847822,245.14125 C189.005322,245.14125 183.742197,243.139375 180.058447,239.135625 C176.374697,235.131875 174.532822,229.395 174.532822,221.925 L174.532822,145.95 C174.532822,138.4225 176.374697,132.67125 180.058447,128.69625 C183.742197,124.72125 189.005322,122.73375 195.847822,122.73375 C202.692822,122.73375 207.971572,124.72125 211.684072,128.69625 C215.396572,132.67125 217.252822,138.4225 217.252822,145.95 L217.252822,221.925 C217.252822,229.395 215.436572,235.131875 211.804072,239.135625 C208.171572,243.139375 202.852822,245.14125 195.847822,245.14125 Z M195.847822,105.77625 C188.205322,105.77625 182.338447,103.993125 178.247197,100.426875 C174.155947,96.860625 172.110322,91.78125 172.110322,85.18875 C172.110322,78.53625 174.155947,73.44125 178.247197,69.90375 C182.338447,66.36625 188.205322,64.5975 195.847822,64.5975 C203.550322,64.5975 209.432197,66.36625 213.493447,69.90375 C217.554697,73.44125 219.585322,78.53625 219.585322,85.18875 C219.585322,91.78125 217.554697,96.860625 213.493447,100.426875 C209.432197,103.993125 203.550322,105.77625 195.847822,105.77625 Z" id="Shape" fill="#7DC3FF"></path>
                    <path d="M302.383652,245.7075 C289.146152,245.7075 277.584277,243.213125 267.698027,238.224375 C257.811777,233.235625 250.158652,226.075625 244.738652,216.744375 C239.318652,207.413125 236.608652,196.405 236.608652,183.72 C236.608652,174.1775 238.136152,165.61 241.191152,158.0175 C244.246152,150.425 248.669277,143.951875 254.460527,138.598125 C260.251777,133.244375 267.188027,129.1675 275.269277,126.3675 C283.350527,123.5675 292.388652,122.1675 302.383652,122.1675 C307.051152,122.1675 311.928652,122.631875 317.016152,123.560625 C322.103652,124.489375 327.367402,126.12375 332.807402,128.46375 C336.592402,129.96125 339.268027,132.1875 340.834277,135.1425 C342.400527,138.0975 343.071777,141.245625 342.848027,144.586875 C342.624277,147.928125 341.649902,150.95 339.924902,153.6525 C338.199902,156.355 335.885527,158.2125 332.981777,159.225 C330.078027,160.2375 326.754902,159.87 323.012402,158.1225 C320.412402,156.86 317.706777,155.913125 314.895527,155.281875 C312.084277,154.650625 309.407402,154.335 306.864902,154.335 C302.607402,154.335 298.836152,154.99625 295.551152,156.31875 C292.266152,157.64125 289.504277,159.55625 287.265527,162.06375 C285.026777,164.57125 283.315527,167.63375 282.131777,171.25125 C280.948027,174.86875 280.356152,179.05375 280.356152,183.80625 C280.356152,193.09125 282.659277,200.3675 287.265527,205.635 C291.871777,210.9025 298.404902,213.53625 306.864902,213.53625 C309.407402,213.53625 312.069902,213.260625 314.852402,212.709375 C317.634902,212.158125 320.354902,211.2 323.012402,209.835 C326.754902,208.09 330.063652,207.738125 332.938652,208.779375 C335.813652,209.820625 338.099277,211.6925 339.795527,214.395 C341.491777,217.0975 342.423027,220.119375 342.589277,223.460625 C342.755527,226.801875 342.041152,229.95 340.446152,232.905 C338.851152,235.86 336.189902,238.0575 332.462402,239.4975 C327.079902,241.7775 321.888027,243.3825 316.886777,244.3125 C311.885527,245.2425 307.051152,245.7075 302.383652,245.7075 Z" id="Path" fill="#FFFFFF"></path>
                    <path d="M381.769189,245.2275 C375.086689,245.2275 369.994814,243.43625 366.493564,239.85375 C362.992314,236.27125 361.241689,231.11 361.241689,224.37 L361.241689,93.37125 C361.241689,86.36625 362.992314,80.981875 366.493564,77.218125 C369.994814,73.454375 374.665439,71.5725 380.505439,71.5725 C385.512939,71.5725 389.447314,72.559375 392.308564,74.533125 C395.169814,76.506875 398.391689,79.70625 401.974189,84.13125 L478.110439,179.1975 L471.255439,179.1975 L471.255439,92.34375 C471.255439,85.66125 473.006064,80.52875 476.507314,76.94625 C480.008564,73.36375 485.101689,71.5725 491.786689,71.5725 C498.469189,71.5725 503.546689,73.36375 507.019189,76.94625 C510.491689,80.52875 512.227939,85.66125 512.227939,92.34375 L512.227939,225.31125 C512.227939,231.32375 510.622939,236.14625 507.412939,239.77875 C504.202939,243.41125 499.860439,245.2275 494.385439,245.2275 C488.967939,245.2275 484.694189,244.22625 481.564189,242.22375 C478.434189,240.22125 475.077939,237.0075 471.495439,232.5825 L395.449189,137.51625 L402.214189,137.51625 L402.214189,224.37 C402.214189,231.11 400.477939,236.27125 397.005439,239.85375 C393.532939,243.43625 388.454189,245.2275 381.769189,245.2275 Z" id="Path" fill="#FFFFFF"></path>
                    <path d="M599.827969,245.7075 C586.750469,245.7075 575.322969,243.2275 565.545469,238.2675 C555.767969,233.3075 548.169219,226.17625 542.749219,216.87375 C537.329219,207.57125 534.619219,196.5775 534.619219,183.8925 C534.619219,174.35 536.146719,165.7825 539.201719,158.19 C542.256719,150.5975 546.654219,144.095625 552.394219,138.684375 C558.134219,133.273125 565.016094,129.1675 573.039844,126.3675 C581.063594,123.5675 589.992969,122.1675 599.827969,122.1675 C613.010469,122.1675 624.464844,124.6475 634.191094,129.6075 C643.917344,134.5675 651.490469,141.65875 656.910469,150.88125 C662.330469,160.10375 665.040469,171.1075 665.040469,183.8925 C665.040469,193.435 663.512344,202.0175 660.456094,209.64 C657.399844,217.2625 653.002344,223.779375 647.263594,229.190625 C641.524844,234.601875 634.642969,238.7075 626.617969,241.5075 C618.592969,244.3075 609.662969,245.7075 599.827969,245.7075 Z M599.827969,214.17 C604.215469,214.17 608.061719,213.113125 611.366719,210.999375 C614.671719,208.885625 617.283594,205.601875 619.202344,201.148125 C621.121094,196.694375 622.080469,190.9425 622.080469,183.8925 C622.080469,173.2375 619.999219,165.541875 615.836719,160.805625 C611.674219,156.069375 606.337969,153.70125 599.827969,153.70125 C595.542969,153.70125 591.722344,154.74375 588.366094,156.82875 C585.009844,158.91375 582.372969,162.158125 580.455469,166.561875 C578.537969,170.965625 577.579219,176.7425 577.579219,183.8925 C577.579219,194.49 579.660469,202.185625 583.822969,206.979375 C587.985469,211.773125 593.320469,214.17 599.827969,214.17 Z" id="Shape" fill="#FFFFFF"></path>
                    <path d="M745.233047,245.7075 C733.300547,245.7075 723.419922,243.845 715.591172,240.12 C707.762422,236.395 701.938047,230.82625 698.118047,223.41375 C694.298047,216.00125 692.388047,206.6925 692.388047,195.4875 L692.388047,156.3225 L684.351797,156.3225 C679.184297,156.3225 675.177422,154.965 672.331172,152.25 C669.484922,149.535 668.061797,145.65125 668.061797,140.59875 C668.061797,135.48875 669.484922,131.590625 672.331172,128.904375 C675.177422,126.218125 679.184297,124.875 684.351797,124.875 L692.388047,124.875 L692.388047,109.93125 C692.388047,102.92625 694.244297,97.581875 697.956797,93.898125 C701.669297,90.214375 706.948047,88.3725 713.793047,88.3725 C720.635547,88.3725 725.898672,90.214375 729.582422,93.898125 C733.266172,97.581875 735.108047,102.92625 735.108047,109.93125 L735.108047,124.875 L754.724297,124.875 C759.994297,124.875 764.026797,126.218125 766.821797,128.904375 C769.616797,131.590625 771.014297,135.48875 771.014297,140.59875 C771.014297,145.65125 769.616797,149.535 766.821797,152.25 C764.026797,154.965 759.994297,156.3225 754.724297,156.3225 L735.108047,156.3225 L735.108047,194.115 C735.108047,199.955 736.507422,204.284375 739.306172,207.103125 C742.104922,209.921875 746.548047,211.33125 752.635547,211.33125 C754.845547,211.33125 756.990547,211.09125 759.070547,210.61125 C761.150547,210.13125 763.093047,209.8625 764.898047,209.805 C767.430547,209.645 769.515547,210.42375 771.153047,212.14125 C772.790547,213.85875 773.609297,217.66625 773.609297,223.56375 C773.609297,228.29625 772.884922,232.31125 771.436172,235.60875 C769.987422,238.90625 767.391797,241.29 763.649297,242.76 C761.366797,243.605 758.315547,244.3075 754.495547,244.8675 C750.675547,245.4275 747.588047,245.7075 745.233047,245.7075 Z" id="Path" fill="#FFFFFF"></path>
                    <path d="M848.546924,245.7075 C834.144424,245.7075 821.708799,243.17625 811.240049,238.11375 C800.771299,233.05125 792.732549,225.883125 787.123799,216.609375 C781.515049,207.335625 778.710674,196.40875 778.710674,183.82875 C778.710674,171.66875 781.383799,160.9775 786.730049,151.755 C792.076299,142.5325 799.445049,135.295625 808.836299,130.044375 C818.227549,124.793125 828.909424,122.1675 840.881924,122.1675 C849.711924,122.1675 857.702549,123.604375 864.853799,126.478125 C872.005049,129.351875 878.145049,133.450625 883.273799,138.774375 C888.402549,144.098125 892.308799,150.5275 894.992549,158.0625 C897.676299,165.5975 899.018174,174.0275 899.018174,183.3525 C899.018174,186.54 898.120674,188.89375 896.325674,190.41375 C894.530674,191.93375 891.741924,192.69375 887.959424,192.69375 L814.444424,192.69375 L814.444424,172.5 L867.630674,172.5 L863.944424,175.48875 C863.944424,169.66125 863.120049,164.880625 861.471299,161.146875 C859.822549,157.413125 857.443174,154.609375 854.333174,152.735625 C851.223174,150.861875 847.394424,149.925 842.846924,149.925 C837.864424,149.925 833.549424,151.07625 829.901924,153.37875 C826.254424,155.68125 823.471924,159.085 821.554424,163.59 C819.636924,168.095 818.678174,173.705 818.678174,180.42 L818.678174,182.4075 C818.678174,193.79 821.196299,201.929375 826.232549,206.825625 C831.268799,211.721875 839.071924,214.17 849.641924,214.17 C853.186924,214.17 857.253174,213.7525 861.840674,212.9175 C866.428174,212.0825 870.786924,210.845 874.916924,209.205 C879.094424,207.59 882.718174,207.285625 885.788174,208.291875 C888.858174,209.298125 891.230049,211.035625 892.903799,213.504375 C894.577549,215.973125 895.497549,218.801875 895.663799,221.990625 C895.830049,225.179375 895.083174,228.22875 893.423174,231.13875 C891.763174,234.04875 889.084424,236.3325 885.386924,237.99 C879.889424,240.5925 873.986299,242.529375 867.677549,243.800625 C861.368799,245.071875 854.991924,245.7075 848.546924,245.7075 Z" id="Path" fill="#FFFFFF"></path>
                    <path d="M997.129512,245.2275 C992.064512,245.2275 987.860762,244.040625 984.518262,241.666875 C981.175762,239.293125 979.085762,236.064375 978.248262,231.980625 C977.410762,227.896875 978.149512,223.3 980.464512,218.19 L1040.30326,89.59125 C1043.19826,83.31625 1046.73889,78.744375 1050.92514,75.875625 C1055.11139,73.006875 1059.94201,71.5725 1065.41701,71.5725 C1070.83451,71.5725 1075.61076,73.006875 1079.74576,75.875625 C1083.88076,78.744375 1087.39701,83.31625 1090.29451,89.59125 L1150.21576,218.19 C1152.69076,223.4025 1153.56076,228.065 1152.82576,232.1775 C1152.09076,236.29 1150.11764,239.493125 1146.90639,241.786875 C1143.69514,244.080625 1139.63701,245.2275 1134.73201,245.2275 C1128.41201,245.2275 1123.52701,243.764375 1120.07701,240.838125 C1116.62701,237.911875 1113.53326,233.2375 1110.79576,226.815 L1097.80201,196.5525 L1114.74451,208.785 L1015.76326,208.785 L1032.70951,196.5525 L1019.80201,226.815 C1017.00451,233.295 1014.07764,237.98375 1011.02139,240.88125 C1007.96514,243.77875 1003.33451,245.2275 997.129512,245.2275 Z M1064.93701,119.88 L1037.16076,186.315 L1030.30951,174.8025 L1100.20201,174.8025 L1093.43326,186.315 L1065.41701,119.88 L1064.93701,119.88 Z" id="Shape" fill="#FFFFFF"></path>
                    <path d="M1194.27507,245.2275 C1187.17007,245.2275 1181.71007,243.265625 1177.89507,239.341875 C1174.08007,235.418125 1172.17257,229.8525 1172.17257,222.645 L1172.17257,94.155 C1172.17257,86.89 1174.08007,81.31 1177.89507,77.415 C1181.71007,73.52 1187.17007,71.5725 1194.27507,71.5725 C1201.38007,71.5725 1206.81444,73.52 1210.57819,77.415 C1214.34194,81.31 1216.22382,86.89 1216.22382,94.155 L1216.22382,222.645 C1216.22382,229.8525 1214.38194,235.418125 1210.69819,239.341875 C1207.01444,243.265625 1201.54007,245.2275 1194.27507,245.2275 Z" id="Path" fill="#FFFFFF"></path>
                </g>
            </g>
        </g>
    </g>
</svg>